<svg width="29" height="37" viewBox="0 0 29 37" fill="none" xmlns="http://www.w3.org/2000/svg">
<path d="M19.3743 0.999998L4.75 1C2.67893 1 1 2.46907 1 4.28125L1 32.7188C1 34.5309 2.67894 36 4.75 36L23.5 36C25.5711 36 27.25 34.5309 27.25 32.7187L27.25 8.01627C27.25 7.7279 27.1255 7.45358 26.9085 7.26369L20.0328 1.24742C19.8505 1.08792 19.6165 0.999998 19.3743 0.999998Z" stroke="#292C31" stroke-width="2" stroke-linecap="round" stroke-linejoin="round"/>
<path d="M18.5 19.0469L9.75 19.0469C7.5625 19.0469 7.5625 20.1406 7.5625 21.0521L7.5625 27.4323C7.5625 28.3437 7.5625 29.4375 9.75 29.4375L18.5 29.4375C20.6875 29.4375 20.6875 28.3437 20.6875 27.4323L20.6875 21.0521C20.6875 20.1406 20.6875 19.0469 18.5 19.0469Z" stroke="#E40000" stroke-width="2" stroke-linecap="round" stroke-linejoin="round"/>
<path d="M14.2339 20.7969L14.2339 27.6875" stroke="#E40000" stroke-width="2" stroke-linecap="round" stroke-linejoin="round"/>
</svg>
