<svg width="56" height="56" viewBox="0 0 56 56" fill="none" xmlns="http://www.w3.org/2000/svg">
<g clip-path="url(#clip0_855_4920)">
<path fill-rule="evenodd" clip-rule="evenodd" d="M28 0C43.464 0 56 12.536 56 28C56 43.464 43.464 56 28 56C12.536 56 0 43.464 0 28C0 12.536 12.536 0 28 0Z" fill="#E3E5FF"/>
<path d="M20.5 24.25V35.3333M31.75 24.25V35.3333M24.25 24.25V35.3333M35.4998 24.25V35.3333M16.75 24.2499H39.2499L27.9999 16.75L16.75 24.2499ZM39.2499 39.0833V38C39.2499 36.5272 38.056 35.3333 36.5832 35.3333H19.4167C17.9439 35.3333 16.75 36.5272 16.75 38V39.0833H39.2499Z" stroke="black" stroke-width="1.2" stroke-linecap="round" stroke-linejoin="round"/>
</g>
<defs>
<clipPath id="clip0_855_4920">
<rect width="56" height="56" fill="white"/>
</clipPath>
</defs>
</svg>
