<svg width="28" height="37" viewBox="0 0 28 37" fill="none" xmlns="http://www.w3.org/2000/svg">
<path d="M26.9684 14.0055C26.9719 11.8639 26.4456 9.7546 25.4364 7.86563C24.4272 5.97667 22.9664 4.36668 21.1842 3.17909C19.4019 1.99151 17.3536 1.26322 15.2217 1.05911C13.0898 0.854993 10.9405 1.1814 8.96529 2.00923C6.99009 2.83707 5.25034 4.14064 3.90104 5.80379C2.55173 7.46695 1.63477 9.43804 1.23185 11.5415C0.828937 13.6449 0.952575 15.8153 1.59175 17.8594C2.23093 19.9034 3.3658 21.7576 4.89525 23.2568C5.69607 24.0082 6.3384 24.9122 6.78439 25.9157C7.23038 26.9192 7.49211 28.1183 7.49209 29.0997L7.49209 30.0735L20.4763 30.0735L20.4763 29.2133C20.4763 28.1183 20.7443 26.9816 21.1984 25.9535C21.6526 24.9254 22.3063 23.9977 23.1218 23.2243C24.3399 22.0178 25.3069 20.5819 25.9671 18.9996C26.6273 17.4174 26.9676 15.72 26.9684 14.0055Z" stroke="#292C31" stroke-width="2" stroke-linecap="round" stroke-linejoin="round"/>
<path d="M15.2794 8.79004L11.3867 15.188L16.5788 15.188L12.6826 21.7743" stroke="#E40000" stroke-width="2" stroke-linecap="round" stroke-linejoin="round"/>
<path d="M8.7876 36L19.175 36" stroke="#292C31" stroke-width="2" stroke-linecap="round" stroke-linejoin="round"/>
</svg>
