<svg width="56" height="56" viewBox="0 0 56 56" fill="none" xmlns="http://www.w3.org/2000/svg">
<g clip-path="url(#clip0_855_4885)">
<path fill-rule="evenodd" clip-rule="evenodd" d="M28 0C43.464 0 56 12.536 56 28C56 43.464 43.464 56 28 56C12.536 56 0 43.464 0 28C0 12.536 12.536 0 28 0Z" fill="#E3E5FF"/>
<path d="M36.3997 18.4001H19.5997C18.2742 18.4001 17.1997 19.4746 17.1997 20.8001V37.6001C17.1997 38.9256 18.2742 40.0001 19.5997 40.0001H36.3997C37.7252 40.0001 38.7997 38.9256 38.7997 37.6001V20.8001C38.7997 19.4746 37.7252 18.4001 36.3997 18.4001Z" stroke="black" stroke-width="1.2" stroke-linecap="round" stroke-linejoin="round"/>
<path d="M32.7998 16V20.8" stroke="black" stroke-width="1.2" stroke-linecap="round" stroke-linejoin="round"/>
<path d="M23.1997 16V20.8" stroke="black" stroke-width="1.2" stroke-linecap="round" stroke-linejoin="round"/>
<path d="M17.1997 25.5999H38.7997" stroke="black" stroke-width="1.2" stroke-linecap="round" stroke-linejoin="round"/>
<path d="M28.6665 36.1976C28.4692 36.3295 28.2371 36.3999 27.9998 36.3999C27.6815 36.3999 27.3763 36.2734 27.1513 36.0484C26.9262 35.8234 26.7998 35.5181 26.7998 35.1999C26.7998 34.9625 26.8702 34.7305 27.002 34.5332C27.1339 34.3359 27.3213 34.182 27.5406 34.0912C27.7599 34.0004 28.0011 33.9766 28.2339 34.0229C28.4667 34.0692 28.6805 34.1835 28.8483 34.3513C29.0162 34.5192 29.1304 34.733 29.1767 34.9658C29.2231 35.1985 29.1993 35.4398 29.1085 35.6591C29.0176 35.8784 28.8638 36.0658 28.6665 36.1976Z" fill="black"/>
<path d="M34.6665 36.1976C34.4692 36.3295 34.2371 36.3999 33.9998 36.3999C33.6815 36.3999 33.3763 36.2734 33.1513 36.0484C32.9262 35.8234 32.7998 35.5181 32.7998 35.1999C32.7998 34.9625 32.8702 34.7305 33.002 34.5332C33.1339 34.3359 33.3213 34.182 33.5406 34.0912C33.7599 34.0004 34.0011 33.9766 34.2339 34.0229C34.4667 34.0692 34.6805 34.1835 34.8483 34.3513C35.0162 34.5192 35.1304 34.733 35.1767 34.9658C35.2231 35.1985 35.1993 35.4398 35.1085 35.6591C35.0176 35.8784 34.8638 36.0658 34.6665 36.1976Z" fill="black"/>
<path d="M34.6665 31.3976C34.4692 31.5295 34.2371 31.5999 33.9998 31.5999C33.6815 31.5999 33.3763 31.4734 33.1513 31.2484C32.9262 31.0234 32.7998 30.7181 32.7998 30.3999C32.7998 30.1625 32.8702 29.9305 33.002 29.7332C33.1339 29.5359 33.3213 29.382 33.5406 29.2912C33.7599 29.2004 34.0011 29.1766 34.2339 29.2229C34.4667 29.2692 34.6805 29.3835 34.8483 29.5513C35.0162 29.7192 35.1304 29.933 35.1767 30.1658C35.2231 30.3985 35.1993 30.6398 35.1085 30.8591C35.0176 31.0784 34.8638 31.2658 34.6665 31.3976Z" fill="black"/>
<path d="M28.6665 31.3976C28.4692 31.5295 28.2371 31.5999 27.9998 31.5999C27.6815 31.5999 27.3763 31.4734 27.1513 31.2484C26.9262 31.0234 26.7998 30.7181 26.7998 30.3999C26.7998 30.1625 26.8702 29.9305 27.002 29.7332C27.1339 29.5359 27.3213 29.382 27.5406 29.2912C27.7599 29.2004 28.0011 29.1766 28.2339 29.2229C28.4667 29.2692 28.6805 29.3835 28.8483 29.5513C29.0162 29.7192 29.1304 29.933 29.1767 30.1658C29.2231 30.3985 29.1993 30.6398 29.1085 30.8591C29.0176 31.0784 28.8638 31.2658 28.6665 31.3976Z" fill="black"/>
<path d="M22.6665 31.3976C22.4691 31.5295 22.2371 31.5999 21.9998 31.5999C21.6815 31.5999 21.3763 31.4734 21.1513 31.2484C20.9262 31.0234 20.7998 30.7181 20.7998 30.3999C20.7998 30.1625 20.8702 29.9305 21.002 29.7332C21.1339 29.5359 21.3213 29.382 21.5406 29.2912C21.7599 29.2004 22.0011 29.1766 22.2339 29.2229C22.4667 29.2692 22.6805 29.3835 22.8483 29.5513C23.0162 29.7192 23.1304 29.933 23.1767 30.1658C23.223 30.3985 23.1993 30.6398 23.1085 30.8591C23.0176 31.0784 22.8638 31.2658 22.6665 31.3976Z" fill="black"/>
<path d="M22.6665 36.1976C22.4691 36.3295 22.2371 36.3999 21.9998 36.3999C21.6815 36.3999 21.3763 36.2734 21.1513 36.0484C20.9262 35.8234 20.7998 35.5181 20.7998 35.1999C20.7998 34.9625 20.8702 34.7305 21.002 34.5332C21.1339 34.3359 21.3213 34.182 21.5406 34.0912C21.7599 34.0004 22.0011 33.9766 22.2339 34.0229C22.4667 34.0692 22.6805 34.1835 22.8483 34.3513C23.0162 34.5192 23.1304 34.733 23.1767 34.9658C23.223 35.1985 23.1993 35.4398 23.1085 35.6591C23.0176 35.8784 22.8638 36.0658 22.6665 36.1976Z" fill="black"/>
</g>
<defs>
<clipPath id="clip0_855_4885">
<rect width="56" height="56" fill="white"/>
</clipPath>
</defs>
</svg>
