<svg width="100" height="100" viewBox="0 0 100 100" fill="none" xmlns="http://www.w3.org/2000/svg">
<path fill-rule="evenodd" clip-rule="evenodd" d="M90.9981 71.2522V72.1222L61.8226 86.7353C61.0721 87.1797 53.3669 91.657 46.925 91.657C43.3747 91.657 41.0989 90.2883 39.0907 89.0827C37.15 87.9165 35.473 86.9078 32.7032 86.9078H24.8015V93.5919C24.8015 94.3663 24.1689 95 23.3959 95H10.4055C9.63258 95 9 94.3663 9 93.5919V58.4109C9 57.6366 9.63258 57.0028 10.4055 57.0028H23.3997C24.1726 57.0028 24.8052 57.6366 24.8052 58.4109V61.9282H31.1254C33.0981 61.9282 34.5522 62.3445 35.7351 62.9257C36.261 59.3877 37.3334 56.4179 38.9335 54.0855C40.7527 51.4343 43.2156 49.715 46.0566 49.115C47.8215 48.7419 49.7006 48.3819 51.5796 48.1119C51.0181 46.1208 45.9406 25.6241 36.3901 13.664C45.1415 27.949 46.3617 35.9812 47.5558 41.456C37.3465 45.8414 28.6625 37.6274 29.237 27.5572C29.7461 18.6419 31.7299 7.28928 31.3444 5C35.0145 6.02558 45.6037 9.55606 52.317 16.5626C55.0906 19.4575 56.5972 22.7611 56.8948 26.1135C52.2795 28.9859 49.0624 33.1538 50.9919 39.6467C50.9994 39.6467 50.9957 39.6617 50.9975 39.6692C51.6376 41.9472 52.6164 44.724 53.1798 46.3476C53.6027 45.4383 54.0893 44.364 54.4618 43.4209C50.2283 38.6792 50.4024 32.6457 55.1524 28.6296C59.9005 24.6136 66.8926 23.0724 69.3013 22.6618C68.9026 24.0942 69.4136 31.4589 69.1441 37.1718C68.8409 43.6234 62.7527 48.2769 56.5317 44.8027C57.6584 41.3941 58.9703 36.3599 65.5039 27.844C59.4607 33.9694 55.1767 44.5084 53.8853 47.8345C58.0027 47.4332 61.9105 47.6376 64.4128 49.3082C66.6455 50.7987 67.557 52.5461 68.2888 53.9486C68.9925 55.2948 69.408 56.0185 70.4654 56.4291C73.4767 57.6028 75.7263 61.392 76.5067 62.8638C77.6409 62.4045 79.067 61.9264 80.1132 61.9264C87.2157 61.9264 91 67.3411 91 71.2485L90.9981 71.2522ZM21.6423 60.1696H12.161V91.8314H21.6423V60.1696ZM38.1849 64.5081C38.2186 64.5344 38.2523 64.5588 38.2879 64.585C39.7832 65.7081 41.0746 66.6774 43.7659 66.6774C46.7304 66.6774 49.3244 65.935 52.0718 65.1475C54.8847 64.3432 57.7913 63.5107 61.1488 63.5107C64.1788 63.5107 66.3779 64.8025 67.8845 66.4018L74.0793 63.9194C73.224 62.3651 71.4068 59.6277 69.509 58.8871C67.4821 58.0978 66.7036 56.6091 65.9531 55.1692C65.298 53.9148 64.6205 52.6174 62.9492 51.5018C59.2454 49.0288 49.7249 51.0368 46.5957 51.6968C42.0047 52.6643 38.956 57.3216 38.183 64.5063L38.1849 64.5081ZM88.0991 70.4273C87.6181 68.0892 85.1832 64.7444 80.1113 64.7444C79.2504 64.7444 77.188 65.5825 75.9995 66.1787L75.8929 66.2274L69.5652 68.7623C69.9788 69.5442 70.2576 70.2942 70.4111 70.911L70.7049 72.0847L49.33 81.0075L48.2501 78.4088L67.2688 70.4704C66.5557 68.9217 64.8152 66.3268 61.1488 66.3268C58.1843 66.3268 55.5903 67.0693 52.8429 67.8568C50.0299 68.6611 47.1234 69.4936 43.7659 69.4936C40.1369 69.4936 38.2598 68.0817 36.6016 66.8368C35.1062 65.7137 33.8149 64.7444 31.1236 64.7444H24.8034V84.0936H32.705C36.2554 84.0936 38.5312 85.4623 40.5393 86.6678C42.4801 87.834 44.157 88.8428 46.9288 88.8428C52.7923 88.8428 60.3534 84.3392 60.4283 84.2942L60.5218 84.2417L88.101 70.4273H88.0991Z" fill="white"/>
</svg>
