<svg width="60" height="60" viewBox="0 0 60 60" fill="none" xmlns="http://www.w3.org/2000/svg">
<path d="M55.9847 29.392L55.9982 29.3785L55.8573 29.2372L48.8861 22.2469V10.7389C48.8861 10.0877 48.3598 9.55922 47.709 9.55922H41.4834C40.8327 9.55922 40.3064 10.0877 40.3064 10.7389V13.6423L30.8331 4.14623L30.8325 4.14563C30.6116 3.92606 30.313 3.8 29.9996 3.8C29.687 3.8 29.3878 3.92395 29.1661 4.14625L29.166 4.14628L25.5127 7.81121L25.5127 7.81124L4.14508 29.2372L4.14447 29.2379C3.92551 29.4593 3.8 29.7585 3.8 30.0723C3.8 30.3853 3.9234 30.685 4.14508 30.9073L7.80005 34.5723C8.02946 34.8023 8.33083 34.9185 8.63358 34.9185C8.93632 34.9185 9.2377 34.8023 9.4671 34.5723L11.1324 32.9025V55.0203C11.1324 55.6715 11.6586 56.2 12.3094 56.2H47.7075C48.3582 56.2 48.8845 55.6715 48.8845 55.0203V32.9169L50.5353 34.5723C50.757 34.7946 51.0562 34.9185 51.3688 34.9185C51.6814 34.9185 51.9807 34.7946 52.2024 34.5723L52.2024 34.5722L55.8557 30.9073C55.8557 30.9073 55.8557 30.9073 55.8557 30.9073C56.2668 30.4951 56.3097 29.8524 55.9847 29.392ZM42.6604 11.9202H46.5304V19.8849L42.6604 16.0043V11.9202ZM11.6191 29.3576L11.4774 29.2164L11.4774 29.2164L11.4773 29.2165L11.4769 29.2169L11.4756 29.2182L11.4726 29.2212L11.6142 29.3624L11.4726 29.2212L8.63358 32.068L6.64329 30.0723L27.1798 9.47967L30.0012 6.65052L40.6499 17.3283L46.8755 23.571L53.3592 30.0723L51.3704 32.0679L48.6237 29.3138C48.6226 29.3123 48.6214 29.3108 48.6202 29.3091C48.603 29.2864 48.5735 29.2474 48.5426 29.2164L48.401 29.3576L48.5426 29.2164L30.8427 11.4681C30.3834 11.0075 29.6366 11.0075 29.1773 11.4681L11.4774 29.2164L11.6191 29.3576ZM24.9446 53.839V38.4357H35.0722V53.839H24.9446ZM46.532 53.839H37.4278V37.256C37.4278 36.6049 36.9016 36.0764 36.2508 36.0764H23.7676C23.1168 36.0764 22.5906 36.6049 22.5906 37.256V53.839H13.488V30.5388L30.0028 13.9804L46.532 30.5549V53.839Z" fill="black" stroke="black" stroke-width="0.4"/>
</svg>
