<svg width="60" height="60" viewBox="0 0 60 60" fill="none" xmlns="http://www.w3.org/2000/svg">
<path d="M36.13 31.75H36.0156L35.9409 31.8365L34.7309 33.2365L34.3735 33.65H34.92H45.03C45.4719 33.65 45.83 34.0081 45.83 34.45V38.33H13.66V34.45C13.66 34.0081 14.0181 33.65 14.46 33.65H24.08H24.6265L24.2691 33.2365L23.0591 31.8365L22.9844 31.75H22.87H14.46C12.9626 31.75 11.75 32.9613 11.75 34.45V53.59C11.75 55.0787 12.9626 56.29 14.46 56.29H45.04C46.5374 56.29 47.75 55.0787 47.75 53.59V34.45C47.75 32.9613 46.5374 31.75 45.04 31.75H45.03H36.13ZM45.84 53.34H45.83V53.59C45.83 54.0319 45.4719 54.39 45.03 54.39H14.46C14.0181 54.39 13.66 54.0319 13.66 53.59V40.35H45.84V53.34Z" fill="black" stroke="black" stroke-width="0.5"/>
<path d="M18.0521 45.4574H31.5753C31.8958 45.4574 32.1956 45.3803 32.422 45.245C32.6443 45.1122 32.8274 44.9006 32.8274 44.6287C32.8274 44.3568 32.6443 44.1452 32.422 44.0124C32.1956 43.8771 31.8958 43.8 31.5753 43.8H18.0521C17.7315 43.8 17.4318 43.8771 17.2054 44.0124C16.9831 44.1452 16.8 44.3568 16.8 44.6287C16.8 44.9006 16.9831 45.1122 17.2054 45.245C17.4318 45.3803 17.7315 45.4574 18.0521 45.4574Z" fill="black" stroke="black" stroke-width="0.4"/>
<path d="M17.7759 49.2906H26.7571C27.2538 49.2906 27.6559 48.8885 27.6559 48.3918C27.6559 47.8952 27.2538 47.4931 26.7571 47.4931H17.7759C17.2792 47.4931 16.8771 47.8952 16.8771 48.3918C16.8771 48.8885 17.2792 49.2906 17.7759 49.2906Z" fill="black" stroke="black" stroke-width="0.4"/>
<path d="M28.9052 33.9799L28.9049 33.9795C28.8766 33.9474 26.3514 31.077 23.8624 27.3326C20.4919 22.2621 18.75 18.0303 18.75 14.7713C18.75 8.69985 23.5664 3.75 29.5004 3.75C35.4345 3.75 40.2509 8.69984 40.25 14.7713L28.9052 33.9799ZM28.9052 33.9799C29.056 34.1506 29.2714 34.25 29.4995 34.25M28.9052 33.9799L29.4995 34.25M29.4995 34.25C29.7269 34.25 29.9436 34.1512 30.0942 33.9795M29.4995 34.25L30.0942 33.9795M30.0942 33.9795C30.1225 33.9474 32.6477 31.077 35.1367 27.3326M30.0942 33.9795L35.1367 27.3326M35.1367 27.3326C38.5081 22.2621 40.25 18.0304 40.25 14.7713L34.9285 27.1942L35.1367 27.3326ZM34.6844 25.061C32.708 28.2287 30.5276 30.9559 29.5004 32.1907C28.4733 30.9564 26.2929 28.2298 24.3164 25.0623C23.2618 23.3721 22.2681 21.5609 21.5387 19.7875C20.8083 18.0114 20.3495 16.2888 20.3495 14.7713C20.3495 9.58557 24.4604 5.37784 29.5004 5.37784C34.5405 5.37784 38.6514 9.58557 38.6514 14.7713C38.6514 16.2881 38.1926 18.0103 37.4622 19.7862C36.7328 21.5594 35.7391 23.3706 34.6844 25.061Z" fill="black" stroke="black" stroke-width="0.5"/>
<path d="M29.5 9.75C26.8805 9.75 24.75 11.8805 24.75 14.5C24.75 17.1195 26.8805 19.25 29.5 19.25C32.1195 19.25 34.25 17.1195 34.25 14.5C34.25 11.8805 32.1195 9.75 29.5 9.75ZM29.5 17.7226C27.723 17.7226 26.2774 16.277 26.2774 14.5C26.2774 12.723 27.723 11.2774 29.5 11.2774C31.277 11.2774 32.7226 12.723 32.7226 14.5C32.7226 16.277 31.277 17.7226 29.5 17.7226Z" fill="black" stroke="black" stroke-width="0.5"/>
</svg>
