<svg width="60" height="60" viewBox="0 0 60 60" fill="none" xmlns="http://www.w3.org/2000/svg">
<path d="M16.538 49.5803H53.1424H53.1445C54.8783 49.5803 56.2875 48.1749 56.2875 46.4479V23.5274C56.2875 21.7981 54.876 20.3951 53.1445 20.3951H16.538C14.8042 20.3951 13.395 21.8005 13.395 23.5274V46.4479C13.395 48.1771 14.8043 49.5803 16.538 49.5803ZM15.4773 23.5274C15.4773 22.9474 15.9532 22.4735 16.538 22.4735H53.1445C53.7289 22.4735 54.203 22.947 54.203 23.5274V46.4479C54.203 47.0284 53.7289 47.5019 53.1445 47.5019H16.538C15.9532 47.5019 15.4773 47.0279 15.4773 46.4479V23.5274Z" fill="black" stroke="black" stroke-width="0.4"/>
<path d="M11.1557 39.9852H11.3557V39.9636C11.8311 39.87 12.1878 39.4487 12.1878 38.9449C12.1878 38.3726 11.7274 37.9068 11.1557 37.9068H7.04624C6.39842 37.9068 5.86645 37.3748 5.86645 36.7171V14.0681C5.86645 13.4121 6.39669 12.8784 7.04624 12.8784H42.9915C43.6393 12.8784 44.1712 13.4104 44.1712 14.0681V18.0541C44.1712 18.6264 44.6317 19.0922 45.2034 19.0922C45.7751 19.0922 46.2356 18.6264 46.2356 18.0541V14.0681C46.2356 12.2677 44.7804 10.8 42.9893 10.8H7.04624C5.25515 10.8 3.8 12.2677 3.8 14.0681V36.7171C3.8 38.5175 5.25515 39.9852 7.04624 39.9852H11.1557Z" fill="black" stroke="black" stroke-width="0.4"/>
<path d="M14.4362 28.1056H55.2463C55.8369 28.1056 56.2875 27.5914 56.2875 26.9918C56.2875 26.3922 55.8369 25.878 55.2463 25.878H14.4362C13.8456 25.878 13.395 26.3922 13.395 26.9918C13.395 27.5914 13.8456 28.1056 14.4362 28.1056Z" fill="black" stroke="black" stroke-width="0.4"/>
<path d="M14.4362 32.6747H55.2463C55.8369 32.6747 56.2875 32.1605 56.2875 31.5609C56.2875 30.9613 55.8369 30.4471 55.2463 30.4471H14.4362C13.8456 30.4471 13.395 30.9613 13.395 31.5609C13.395 32.1605 13.8456 32.6747 14.4362 32.6747Z" fill="black" stroke="black" stroke-width="0.4"/>
<path d="M18.8079 37.8665H34.9982C35.3761 37.8665 35.7277 37.7755 35.9916 37.6178C36.2515 37.4625 36.4578 37.2199 36.4578 36.9138C36.4578 36.6076 36.2515 36.365 35.9916 36.2097C35.7277 36.0521 35.3761 35.9611 34.9982 35.9611H18.8079C18.43 35.9611 18.0783 36.0521 17.8144 36.2097C17.5546 36.365 17.3483 36.6076 17.3483 36.9138C17.3483 37.2199 17.5546 37.4625 17.8144 37.6178C18.0783 37.7755 18.43 37.8665 18.8079 37.8665Z" fill="black" stroke="black" stroke-width="0.4"/>
<path d="M18.4772 42.4556H29.2298C29.8026 42.4556 30.2664 41.9919 30.2664 41.4191C30.2664 40.8463 29.8026 40.3825 29.2298 40.3825H18.4772C17.9044 40.3825 17.4407 40.8463 17.4407 41.4191C17.4407 41.9919 17.9044 42.4556 18.4772 42.4556Z" fill="black" stroke="black" stroke-width="0.4"/>
</svg>
