<svg width="74" height="75" viewBox="0 0 74 75" fill="none" xmlns="http://www.w3.org/2000/svg">
<circle cx="37.5" cy="37.5" r="35.5" fill="#83261A"/>
<path d="M26.6907 26.2152C26.2396 26.2152 25.8743 25.8527 25.8743 25.4051C25.8743 22.3266 28.399 19.8213 31.5014 19.8213C31.9525 19.8213 32.3179 20.1838 32.3179 20.6314C32.3179 21.079 31.9525 21.4415 31.5014 21.4415C29.2991 21.4415 27.5071 23.2197 27.5071 25.4051C27.5071 25.8527 27.1418 26.2152 26.6907 26.2152Z" fill="white"/>
<path d="M23.2536 26.2152C22.8025 26.2152 22.4371 25.8527 22.4371 25.4051C22.4371 20.4451 26.5029 16.4106 31.5014 16.4106C31.9525 16.4106 32.3178 16.7732 32.3178 17.2208C32.3178 17.6684 31.9525 18.0309 31.5014 18.0309C27.403 18.0309 24.07 21.3382 24.07 25.4051C24.07 25.8527 23.7046 26.2152 23.2536 26.2152Z" fill="white"/>
<path d="M49.6362 61H42.9517C42.2721 61 41.7108 60.4694 41.6699 59.7949C41.6148 58.8633 41.374 58.2152 41.0964 57.4658C40.727 56.4694 40.3065 55.3413 40.3065 53.4456V43.1387C40.3065 42.3205 40.9699 41.6522 41.7842 41.6461C41.7924 41.6461 41.8026 41.6461 41.8108 41.6461C42.9415 41.6461 44.0049 42.0815 44.8091 42.8734C45.6194 43.6714 46.0643 44.7347 46.0643 45.8668V49.3119C46.0643 49.4516 46.1194 49.5833 46.2174 49.6805C46.2745 49.7372 46.399 49.8324 46.5889 49.8324C46.7154 49.8324 47.1706 49.7251 47.8686 48.4005V26.7701C47.8686 26.4704 47.6135 26.2152 47.3094 26.2152H32.8751C32.573 26.2152 32.3158 26.4684 32.3158 26.7701V52.0056C32.3158 52.3053 32.571 52.5605 32.8751 52.5605H39.0615C39.5126 52.5605 39.8779 52.923 39.8779 53.3706C39.8779 53.8182 39.5126 54.1808 39.0615 54.1808H32.8751C31.6668 54.1808 30.683 53.2046 30.683 52.0056V26.7701C30.683 25.5711 31.6668 24.5949 32.8751 24.5949H47.3094C48.5177 24.5949 49.5014 25.5711 49.5014 26.7701V37.3079C52.9426 40.3661 55 47.7463 55 49.2775C55 50.9342 53.455 54.5737 51.9221 57.4456C51.9119 57.4658 51.8997 57.4861 51.8874 57.5043C51.1894 58.5798 50.973 59.477 50.9057 59.9144C50.8098 60.5423 50.275 60.998 49.6362 60.998V61ZM43.2762 59.3797H49.3443C49.4729 58.7641 49.7749 57.7757 50.4954 56.6577C52.1079 53.6299 53.3672 50.3934 53.3672 49.2775C53.3672 48.1615 51.8691 42.8046 49.5014 39.7058V48.5949C49.5014 48.7205 49.4729 48.8441 49.4157 48.9575C49.1055 49.5752 48.1584 51.4506 46.5889 51.4506C46.0112 51.4506 45.4704 51.2279 45.0622 50.8248C44.656 50.4218 44.4315 49.883 44.4315 49.3099V45.8648C44.4315 45.1681 44.1559 44.5139 43.6579 44.0218C43.1946 43.5641 42.5884 43.2987 41.9394 43.2684V53.4435C41.9394 55.0496 42.2741 55.9509 42.6272 56.9028C42.8966 57.6258 43.1742 58.3732 43.2742 59.3777L43.2762 59.3797Z" fill="white"/>
<path d="M35.6264 53.4982C35.1753 53.4982 34.8099 53.1357 34.8099 52.6881V25.4051C34.8099 24.9575 35.1753 24.5949 35.6264 24.5949C36.0774 24.5949 36.4428 24.9575 36.4428 25.4051V52.6881C36.4428 53.1357 36.0774 53.4982 35.6264 53.4982Z" fill="white"/>
<path d="M43.8743 35.082C43.4232 35.082 43.0579 34.7195 43.0579 34.2719V29.4982C43.0579 29.0506 43.4232 28.6881 43.8743 28.6881C44.3254 28.6881 44.6907 29.0506 44.6907 29.4982V34.2719C44.6907 34.7195 44.3254 35.082 43.8743 35.082Z" fill="white"/>
<path d="M19.8164 26.2152C19.3653 26.2152 19 25.8527 19 25.4051C19 18.5656 24.6088 13 31.5014 13C31.9525 13 32.3178 13.3625 32.3178 13.8101C32.3178 14.2577 31.9525 14.6203 31.5014 14.6203C25.5089 14.6203 20.6328 19.4587 20.6328 25.4051C20.6328 25.8527 20.2675 26.2152 19.8164 26.2152Z" fill="white"/>
</svg>
