<svg width="56" height="56" viewBox="0 0 56 56" fill="none" xmlns="http://www.w3.org/2000/svg">
<g clip-path="url(#clip0_470_81532)">
<g clip-path="url(#clip1_470_81532)">
<path fill-rule="evenodd" clip-rule="evenodd" d="M28 0C43.464 0 56 12.536 56 28C56 43.464 43.464 56 28 56C12.536 56 0 43.464 0 28C0 12.536 12.536 0 28 0Z" fill="#E3E5FF"/>
<path d="M33.7143 16L22.2857 16C21.0233 16 20 17.0745 20 18.4L20 37.6C20 38.9255 21.0234 40 22.2857 40L33.7143 40C34.9767 40 36 38.9255 36 37.6L36 18.4C36 17.0745 34.9767 16 33.7143 16Z" stroke="black" stroke-width="1.2" stroke-linecap="round" stroke-linejoin="round"/>
<path d="M28 36L28.0118 36" stroke="black" stroke-width="1.2" stroke-linecap="round" stroke-linejoin="round"/>
</g>
</g>
<defs>
<clipPath id="clip0_470_81532">
<rect width="56" height="56" fill="white"/>
</clipPath>
<clipPath id="clip1_470_81532">
<rect width="56" height="56" fill="white"/>
</clipPath>
</defs>
</svg>
