<svg width="74" height="75" viewBox="0 0 74 75" fill="none" xmlns="http://www.w3.org/2000/svg">
<circle cx="37.5" cy="37.5" r="35.5" fill="#83261A"/>
<path d="M35.8045 59.6134H56.2467C56.6666 59.6134 57.0061 59.2739 57.0061 58.8541V16.6593C57.0061 16.2395 56.6666 15.9 56.2467 15.9H27.232C26.8121 15.9 26.4726 16.2395 26.4726 16.6593V37.6466C26.4726 38.0664 26.8121 38.4059 27.232 38.4059C27.6519 38.4059 27.9914 38.0664 27.9914 37.6466V17.4186H55.4873V58.0948H35.8045C35.3847 58.0948 35.0451 58.4343 35.0451 58.8541C35.0451 59.2739 35.3847 59.6134 35.8045 59.6134Z" fill="white" stroke="white" stroke-width="0.2"/>
<path d="M50.1206 23.9438C50.7013 24.2699 51.3732 24.4708 52.2902 24.4708C52.4919 24.4708 52.6858 24.5505 52.8282 24.6943M50.1206 23.9438L52.9496 35.1209L53.0496 35.1211C53.0562 31.7396 53.0435 29.1851 53.0114 27.458C52.9953 26.5946 52.9744 25.937 52.9486 25.4858C52.9357 25.2605 52.9215 25.085 52.9058 24.9604C52.8979 24.8984 52.8895 24.8467 52.88 24.8069C52.8753 24.7871 52.8698 24.768 52.8632 24.7511C52.8576 24.7367 52.8472 24.7136 52.8282 24.6943M50.1206 23.9438C49.5365 23.6159 49.0416 23.1599 48.4773 22.6395L50.1206 23.9438ZM52.8282 24.6943L52.7571 24.7647L52.8278 24.694C52.8279 24.6941 52.828 24.6942 52.8282 24.6943ZM31.1886 35.8788H52.2902L48.4773 22.6394L48.4737 22.6361C47.7753 21.9915 47.0203 21.2946 45.9763 20.7607C44.9288 20.2251 43.5954 19.8558 41.7394 19.8558C39.8834 19.8558 38.55 20.2251 37.5025 20.7607C36.4585 21.2946 35.7035 21.9915 35.0051 22.6361L35.0015 22.6394C34.4373 23.1599 33.9424 23.6158 33.3582 23.9438C32.7775 24.2699 32.1056 24.4708 31.1886 24.4708C30.7687 24.4708 30.4292 24.8103 30.4292 25.2301V35.1195C30.4292 35.5394 30.7687 35.8788 31.1886 35.8788ZM47.4475 23.7549L47.5153 23.6815L47.4475 23.7549L47.4529 23.7599C48.499 24.7254 49.5986 25.7403 51.5377 25.9502C51.5424 27.4978 51.538 31.3456 51.5323 34.3602H31.948V25.9494C33.8831 25.7374 34.982 24.7233 36.0271 23.7588L36.0313 23.7549C36.6734 23.1625 37.3162 22.5699 38.19 22.1232C39.0619 21.6774 40.1693 21.3744 41.7394 21.3744C43.3095 21.3744 44.4171 21.6774 45.2891 22.1232C46.163 22.5699 46.8057 23.1625 47.4475 23.7549Z" fill="white" stroke="white" stroke-width="0.2"/>
<path d="M35.2553 55.6576H52.2902C52.7101 55.6576 53.0496 55.3182 53.0496 54.8983V41.7125C53.0496 41.2926 52.7101 40.9532 52.2902 40.9532H31.848C31.4282 40.9532 31.0886 41.2926 31.0886 41.7125C31.0886 42.1323 31.4282 42.4717 31.848 42.4717H51.5308V54.139H35.2553C34.8354 54.139 34.4958 54.4785 34.4958 54.8983C34.4958 55.3182 34.8354 55.6576 35.2553 55.6576Z" fill="white" stroke="white" stroke-width="0.2"/>
<path d="M50.9713 39.1753H52.2902C52.71 39.1753 53.0496 38.8358 53.0496 38.416C53.0496 37.9961 52.71 37.6567 52.2902 37.6567H50.9713C50.5514 37.6567 50.2119 37.9961 50.2119 38.416C50.2119 38.8358 50.5514 39.1753 50.9713 39.1753Z" fill="white" stroke="white" stroke-width="0.2"/>
<path d="M33.1669 59.6134H18.6595C18.4524 59.6134 18.254 59.5292 18.1104 59.3781C17.967 59.2285 17.891 59.0265 17.9009 58.8198L17.9008 58.8199L18.0007 58.8244L17.9009 58.8197L18.5603 44.3155L18.5603 44.3154L18.6602 44.32L33.1669 59.6134ZM33.1669 59.6134C33.3747 59.6134 33.5729 59.5285 33.7158 59.3783L33.1669 59.6134ZM33.9255 58.8197L33.2661 44.3155L33.6436 59.309C33.7683 59.1791 33.8342 59.0038 33.8256 58.8244L33.9255 58.8199L33.9255 58.8197ZM32.3718 58.0948H19.4546L20.0449 45.1089H31.7815L32.3718 58.0948Z" fill="white" stroke="white" stroke-width="0.2"/>
<path d="M28.4509 45.6682C28.4509 46.0881 28.7905 46.4275 29.2103 46.4275C29.6302 46.4275 29.9698 46.0881 29.9698 45.6682V42.8405C29.9698 41.0724 28.5316 39.6346 26.7626 39.6346H25.0639C23.2948 39.6346 21.8567 41.0724 21.8567 42.8405V45.6682C21.8567 46.0881 22.1962 46.4275 22.6161 46.4275C23.036 46.4275 23.3755 46.0881 23.3755 45.6682V42.8405C23.3755 41.9102 24.1332 41.1532 25.0639 41.1532H26.7626C27.6932 41.1532 28.4509 41.9102 28.4509 42.8405V45.6682Z" fill="white" stroke="white" stroke-width="0.2"/>
</svg>
