<svg width="37" height="37" viewBox="0 0 37 37" fill="none" xmlns="http://www.w3.org/2000/svg">
<path d="M13.0692 34.8179C16.8054 36.2316 20.8876 36.3705 24.707 35.2139C26.8281 34.5716 28.805 33.5489 30.5522 32.2069L5.42965 4.7832C2.84185 7.8841 1.3021 11.7587 1.04004 15.829C0.777974 19.8994 1.80764 23.9475 3.97546 27.3695C6.14329 30.7916 9.33313 33.4043 13.0692 34.8179Z" stroke="#292C31" stroke-width="2" stroke-linecap="round" stroke-linejoin="round"/>
<path d="M1 35.9995L5.61753 31.2656" stroke="#292C31" stroke-width="2" stroke-linecap="round" stroke-linejoin="round"/>
<path d="M21.3171 8.56661C23.1212 8.9271 24.7791 9.83072 26.0789 11.1618C27.3786 12.493 28.2609 14.191 28.6128 16.0386M21.3171 1C25.0652 1.42645 28.5604 3.14546 31.2286 5.8748C33.8969 8.60414 35.5798 12.1816 36.0009 16.0197" stroke="#E40000" stroke-width="2" stroke-linecap="round" stroke-linejoin="round"/>
</svg>
