<svg width="56" height="56" viewBox="0 0 56 56" fill="none" xmlns="http://www.w3.org/2000/svg">
<g clip-path="url(#clip0_2412_102808)">
<g clip-path="url(#clip1_2412_102808)">
<path fill-rule="evenodd" clip-rule="evenodd" d="M28 0C43.464 0 56 12.536 56 28C56 43.464 43.464 56 28 56C12.536 56 0 43.464 0 28C0 12.536 12.536 0 28 0Z" fill="#E3E5FF"/>
<path d="M20.5332 33.3072L24.1182 31.0522C24.2333 30.9803 24.3618 30.9326 24.4959 30.912C24.63 30.8914 24.7669 30.8982 24.8982 30.9322C26.1682 31.2572 29.9982 32.3122 31.3982 32.8022C32.4632 33.1772 32.8982 34.2222 32.4632 34.9172C31.8832 35.8472 31.0032 35.7422 30.3682 35.5672C30.283 35.5408 30.1995 35.509 30.1182 35.4722L27.6182 34.4072M20.4932 39.9072L17.0882 34.7822C17.0482 34.7216 17.0205 34.6536 17.0069 34.5822C16.9932 34.5108 16.9938 34.4375 17.0087 34.3663C17.0236 34.2952 17.0524 34.2277 17.0935 34.1678C17.1346 34.1079 17.1872 34.0567 17.2482 34.0172L19.3932 32.6222C19.5141 32.5447 19.6602 32.5171 19.801 32.545C19.9417 32.573 20.0662 32.6544 20.1482 32.7722L23.6482 37.8022C23.6898 37.8621 23.719 37.9297 23.7343 38.001C23.7495 38.0723 23.7504 38.1459 23.7369 38.2175C23.7234 38.2892 23.6958 38.3575 23.6557 38.4183C23.6156 38.4792 23.5637 38.5315 23.5032 38.5722L21.2832 40.0722C21.2215 40.1161 21.1513 40.1468 21.0771 40.1622C21.0029 40.1777 20.9264 40.1777 20.8522 40.1623C20.778 40.1468 20.7078 40.1161 20.6461 40.0722C20.5843 40.0283 20.5323 39.9722 20.4932 39.9072Z" stroke="black" stroke-width="1.2" stroke-linecap="round" stroke-linejoin="round"/>
<path d="M23.312 37.3724L24.1216 36.9088C24.3523 36.7766 24.6262 36.7418 24.8826 36.812L31.112 38.5174C31.1803 38.5358 31.2517 38.5395 31.3215 38.5283C31.3913 38.5171 31.4579 38.4912 31.517 38.4524C32.452 37.8524 36.452 35.2074 38.422 33.8124C38.585 33.725 38.7234 33.598 38.8243 33.4431C38.9252 33.2881 38.9854 33.1102 38.9994 32.9258C39.0133 32.7414 38.9806 32.5564 38.9041 32.388C38.8277 32.2196 38.71 32.0732 38.562 31.9624C38.332 31.7568 38.0417 31.6312 37.7344 31.6041C37.4272 31.5771 37.1194 31.6501 36.857 31.8124C36.162 32.1974 32.9819 33.941 32.9819 33.941" stroke="black" stroke-width="1.2" stroke-linecap="round" stroke-linejoin="round"/>
<path d="M26.9526 19.1995L25.3793 17.1595C25.2994 17.0265 25.256 16.8748 25.2536 16.7197C25.2512 16.5645 25.2899 16.4115 25.3657 16.2762C25.4415 16.1408 25.5518 16.0279 25.6853 15.9489C25.8188 15.8698 25.9708 15.8275 26.126 15.8262L31.7793 15.8262C31.9344 15.8275 32.0865 15.8698 32.22 15.9489C32.3535 16.0279 32.4637 16.1408 32.5395 16.2762C32.6153 16.4115 32.654 16.5645 32.6516 16.7197C32.6492 16.8748 32.6059 17.0265 32.526 17.1595L30.9526 19.1862C34.9526 21.1862 36.9526 23.8528 36.9526 27.8528C36.8365 30.6395 34.7232 33.0074 34.7232 33.0074M26.9526 19.1995C22.9526 21.2128 20.9526 23.8795 20.9526 27.8795C21.0599 30.4467 22.3458 32.054 22.3458 32.054M26.9526 19.1995L30.9568 19.1995" stroke="black" stroke-width="1.2" stroke-linecap="round" stroke-linejoin="round"/>
<path d="M26.9268 22.7624L27.914 22.7624C28.8633 22.7624 29.936 23.0804 29.936 24.5471C29.936 26.1371 28.588 26.7447 27.1593 26.5833C27.1426 26.5812 27.1256 26.5844 27.1108 26.5925C27.096 26.6006 27.0841 26.6131 27.0768 26.6283C27.0694 26.6435 27.067 26.6606 27.0699 26.6772C27.0728 26.6938 27.0808 26.7091 27.0929 26.7209L30.1306 29.9912M31.0989 22.7624L27.6957 22.7624M26.979 24.5993L31.1226 24.5993" stroke="black" stroke-width="1.1" stroke-linecap="round" stroke-linejoin="round"/>
</g>
</g>
<defs>
<clipPath id="clip0_2412_102808">
<rect width="56" height="56" fill="white"/>
</clipPath>
<clipPath id="clip1_2412_102808">
<rect width="56" height="56" fill="white"/>
</clipPath>
</defs>
</svg>
