<svg width="21" height="36" viewBox="0 0 21 36" fill="none" xmlns="http://www.w3.org/2000/svg">
<path d="M9.26562 8.04776V6.63897C9.26562 5.98998 9.79174 5.46387 10.4407 5.46387V5.46387C11.0897 5.46387 11.6158 5.98998 11.6158 6.63897V8.04776" stroke="#E40000" stroke-width="2"/>
<path d="M13.8062 8.28233C13.8062 8.83462 14.2539 9.28233 14.8062 9.28233C15.3584 9.28233 15.8062 8.83462 15.8062 8.28233L13.8062 8.28233ZM13.8062 1.23535L13.8062 8.28233L15.8062 8.28233L15.8062 1.23535L13.8062 1.23535Z" fill="#292C31"/>
<path d="M3.76025 0C3.20797 0 2.76025 0.447715 2.76025 1C2.76025 1.55228 3.20797 2 3.76025 2V0ZM16.9214 2C17.4737 2 17.9214 1.55228 17.9214 1C17.9214 0.447715 17.4737 0 16.9214 0V2ZM3.76025 2H16.9214V0H3.76025V2Z" fill="#292C31"/>
<path d="M4.875 8.28233C4.875 8.83462 5.32272 9.28233 5.875 9.28233C6.42728 9.28233 6.875 8.83462 6.875 8.28233L4.875 8.28233ZM4.875 1.23535L4.875 8.28233L6.875 8.28233L6.875 1.23535L4.875 1.23535Z" fill="#292C31"/>
<line y1="20.9053" x2="20.6818" y2="20.9053" stroke="#E40000" stroke-width="2"/>
<path d="M1 16.7515C1 12.3664 4.55486 8.81152 8.94 8.81152H11.7418C16.127 8.81152 19.6818 12.3664 19.6818 16.7515V27.0594C19.6818 31.4446 16.127 34.9994 11.7418 34.9994H8.94C4.55486 34.9994 1 31.4446 1 27.0594V16.7515Z" stroke="#292C31" stroke-width="2"/>
</svg>
