<svg width="56" height="56" viewBox="0 0 56 56" fill="none" xmlns="http://www.w3.org/2000/svg">
<g clip-path="url(#clip0_774_79145)">
<g clip-path="url(#clip1_774_79145)">
<path fill-rule="evenodd" clip-rule="evenodd" d="M28 0C43.464 0 56 12.536 56 28C56 43.464 43.464 56 28 56C12.536 56 0 43.464 0 28C0 12.536 12.536 0 28 0Z" fill="#E3E5FF"/>
<path d="M27.3045 15.3393C27.6922 14.9643 28.3075 14.9643 28.6951 15.3393L30.9447 17.5155C31.1664 17.73 31.4746 17.8301 31.78 17.7869L34.8791 17.3486C35.4132 17.2731 35.9109 17.6347 36.0041 18.166L36.5449 21.2488C36.5982 21.5526 36.7887 21.8148 37.0612 21.9594L39.826 23.4264C40.3025 23.6792 40.4926 24.2643 40.2557 24.7489L38.8812 27.5608C38.7457 27.8379 38.7457 28.1621 38.8812 28.4392L40.2557 31.2511C40.4926 31.7357 40.3025 32.3208 39.826 32.5736L37.0612 34.0406C36.7887 34.1852 36.5982 34.4474 36.5449 34.7512L36.0041 37.834C35.9109 38.3653 35.4132 38.727 34.8791 38.6514L31.78 38.2131C31.4746 38.1699 31.1664 38.27 30.9447 38.4845L28.6951 40.6607C28.3075 41.0357 27.6922 41.0357 27.3045 40.6607L25.055 38.4845C24.8333 38.27 24.5251 38.1699 24.2196 38.2131L21.1206 38.6514C20.5865 38.727 20.0888 38.3653 19.9956 37.834L19.4548 34.7512C19.4015 34.4474 19.211 34.1852 18.9385 34.0406L16.1737 32.5736C15.6972 32.3208 15.5071 31.7357 15.7439 31.2511L17.1185 28.4392C17.254 28.1621 17.254 27.8379 17.1185 27.5608L15.7439 24.7489C15.5071 24.2643 15.6972 23.6792 16.1737 23.4264L18.9385 21.9594C19.211 21.8148 19.4015 21.5526 19.4548 21.2488L19.9956 18.166C20.0888 17.6347 20.5865 17.2731 21.1206 17.3486L24.2196 17.7869C24.5251 17.8301 24.8333 17.73 25.055 17.5155L27.3045 15.3393Z" stroke="black" stroke-width="1.2" stroke-linecap="round" stroke-linejoin="round"/>
<rect x="29.9854" y="28.7083" width="3.47399" height="4.10804" rx="1.73699" stroke="black" stroke-width="1.2" stroke-linecap="round" stroke-linejoin="round"/>
<rect x="22.5405" y="23.5733" width="3.47399" height="4.10804" rx="1.737" stroke="black" stroke-width="1.2" stroke-linecap="round" stroke-linejoin="round"/>
<path d="M31.6353 21.761L24.4702 34.2391" stroke="black" stroke-width="1.2" stroke-linecap="round" stroke-linejoin="round"/>
</g>
</g>
<defs>
<clipPath id="clip0_774_79145">
<rect width="56" height="56" fill="white"/>
</clipPath>
<clipPath id="clip1_774_79145">
<rect width="56" height="56" fill="white"/>
</clipPath>
</defs>
</svg>
