<svg width="74" height="75" viewBox="0 0 74 75" fill="none" xmlns="http://www.w3.org/2000/svg">
<circle cx="37.5" cy="37.5" r="35.5" fill="#83261A"/>
<path d="M25.9246 52.4303H54.8992H54.9009C56.2138 52.4303 57.2804 51.366 57.2804 50.0591V31.9162C57.2804 30.6076 56.212 29.5451 54.9009 29.5451H25.9246C24.6117 29.5451 23.5451 30.6094 23.5451 31.9162V50.0591C23.5451 51.3677 24.6117 52.4303 25.9246 52.4303ZM24.9767 31.9162C24.9767 31.3967 25.4025 30.9736 25.9246 30.9736H54.9009C55.4229 30.9736 55.847 31.3965 55.847 31.9162V50.0591C55.847 50.5788 55.4229 51.0017 54.9009 51.0017H25.9246C25.4025 51.0017 24.9767 50.5787 24.9767 50.0591V31.9162Z" fill="white" stroke="white" stroke-width="0.1"/>
<path d="M21.6641 44.8352H21.7141V44.8318C22.0827 44.806 22.3728 44.4971 22.3728 44.1201C22.3728 43.7261 22.0562 43.4066 21.6641 43.4066H18.4113C17.8381 43.4066 17.3691 42.9364 17.3691 42.3566V24.4286C17.3691 23.8504 17.8365 23.3786 18.4113 23.3786H46.8641C47.4373 23.3786 47.9063 23.8488 47.9063 24.4286V27.5837C47.9063 27.9777 48.2229 28.2972 48.6149 28.2972C49.007 28.2972 49.3237 27.9777 49.3237 27.5837V24.4286C49.3237 23.0625 48.2196 21.95 46.8624 21.95H18.4113C17.0541 21.95 15.95 23.0625 15.95 24.4286V42.3566C15.95 43.7227 17.0541 44.8352 18.4113 44.8352H21.6641Z" fill="white" stroke="white" stroke-width="0.1"/>
<path d="M24.261 35.4318H56.5645C56.964 35.4318 57.2804 35.0819 57.2804 34.6585C57.2804 34.235 56.964 33.8851 56.5645 33.8851H24.261C23.8615 33.8851 23.5451 34.235 23.5451 34.6585C23.5451 35.0819 23.8615 35.4318 24.261 35.4318Z" fill="white" stroke="white" stroke-width="0.1"/>
<path d="M24.261 39.0485H56.5645C56.964 39.0485 57.2804 38.6986 57.2804 38.2752C57.2804 37.8517 56.964 37.5018 56.5645 37.5018H24.261C23.8615 37.5018 23.5451 37.8517 23.5451 38.2752C23.5451 38.6986 23.8615 39.0485 24.261 39.0485Z" fill="white" stroke="white" stroke-width="0.1"/>
<path d="M27.7213 43.1581H40.5369C40.8199 43.1581 41.0783 43.0898 41.2677 42.9766C41.4561 42.864 41.5839 42.7015 41.5839 42.5123C41.5839 42.3231 41.4561 42.1606 41.2677 42.048C41.0783 41.9348 40.8199 41.8665 40.5369 41.8665H27.7213C27.4383 41.8665 27.1799 41.9348 26.9905 42.048C26.8021 42.1606 26.6742 42.3231 26.6742 42.5123C26.6742 42.7015 26.8021 42.864 26.9905 42.9766C27.1799 43.0898 27.4383 43.1581 27.7213 43.1581Z" fill="white" stroke="white" stroke-width="0.1"/>
<path d="M27.4595 46.7907H35.9709C36.3645 46.7907 36.683 46.4721 36.683 46.0785C36.683 45.6849 36.3645 45.3664 35.9709 45.3664H27.4595C27.0659 45.3664 26.7474 45.6849 26.7474 46.0785C26.7474 46.4721 27.0659 46.7907 27.4595 46.7907Z" fill="white" stroke="white" stroke-width="0.1"/>
</svg>
