<svg width="33" height="36" viewBox="0 0 33 36" fill="none" xmlns="http://www.w3.org/2000/svg">
<path d="M28.3592 34.6553C29.3502 34.6553 30.1562 33.8407 30.1562 32.8397L30.1562 31.0821L31.5514 31.0821C31.7704 31.0821 31.9475 30.9049 31.9475 30.686L31.9475 29.9264C31.9475 29.7074 31.7704 29.5303 31.5514 29.5303L31.3255 29.5303L31.3255 23.3113C31.3255 21.7217 30.2178 20.3933 28.7529 20.0937L27.4568 14.1434C27.2201 12.9319 26.1757 12.0527 24.9735 12.0527L13.9413 12.0527C12.7391 12.0527 11.6947 12.9319 11.4596 14.1349L10.1619 20.0937C8.69695 20.3933 7.58926 21.7217 7.58926 23.3113L7.58926 29.5303L7.36337 29.5303C7.14444 29.5303 6.96729 29.7074 6.96729 29.9264L6.96729 30.686C6.96729 30.9049 7.14444 31.0821 7.36337 31.0821L8.75855 31.0821L8.75855 32.8397C8.75855 33.8407 9.56464 34.6553 10.5556 34.6553C11.5466 34.6553 12.3531 33.8407 12.3531 32.8397L12.3531 31.0821L26.5617 31.0821L26.5617 32.8397C26.5617 33.8407 27.3682 34.6553 28.3592 34.6553Z" stroke="#292C31" stroke-width="2" stroke-linecap="round" stroke-linejoin="round"/>
<path d="M26.3972 24C25.6318 24 25.0093 24.6227 25.0093 25.3879C25.0093 26.1531 25.6318 26.7756 26.3972 26.7756C27.1623 26.7756 27.7849 26.1531 27.7849 25.3879C27.7849 24.6227 27.1623 24 26.3972 24Z" stroke="#292C31" stroke-width="1.5" stroke-linecap="round" stroke-linejoin="round"/>
<path d="M12.5173 24C11.7519 24 11.1294 24.6227 11.1294 25.3879C11.1294 26.1531 11.7519 26.7756 12.5173 26.7756C13.2824 26.7756 13.905 26.1531 13.905 25.3879C13.905 24.6227 13.2824 24 12.5173 24Z" stroke="#292C31" stroke-width="1.5" stroke-linecap="round" stroke-linejoin="round"/>
<path d="M18.6441 20.2456C18.8095 19.9117 18.9025 19.5356 18.9025 19.1378C18.9025 17.7581 17.7841 16.6396 16.4044 16.6396C15.0247 16.6396 13.9063 17.7581 13.9063 19.1378C13.9063 19.5356 13.9992 19.9117 14.1647 20.2456" stroke="#292C31" stroke-width="1.5" stroke-linecap="round" stroke-linejoin="round"/>
<path d="M9.46508 20.3965L29.4502 20.3965" stroke="#292C31" stroke-width="2" stroke-linecap="round" stroke-linejoin="round"/>
<path d="M6.96656 30.54L31.9468 30.54" stroke="#292C31" stroke-width="2" stroke-linecap="round" stroke-linejoin="round"/>
<path d="M0 2.8418C-2.41411e-08 2.28951 0.447715 1.8418 1 1.8418C1.55228 1.8418 2 2.28951 2 2.8418L0 2.8418ZM2 2.8418L2 35.9995L2.87988e-06 35.9995L0 2.8418L2 2.8418Z" fill="#E40000"/>
<path d="M28.2632 1L4.73509 11.0807" stroke="#E40000" stroke-width="2" stroke-linecap="round" stroke-linejoin="round"/>
</svg>
