<svg width="37" height="37" viewBox="0 0 37 37" fill="none" xmlns="http://www.w3.org/2000/svg">
<path d="M14.5244 2.85805L17.2593 1.32327C18.0301 0.892244 18.9699 0.892244 19.7407 1.32327C20.5824 1.79655 21.8502 2.50816 22.4756 2.85805C22.599 2.92735 22.7376 2.96454 22.8779 2.96623C23.5945 2.97468 25.0482 2.99327 26.0133 3.00511C26.8974 3.01525 27.7104 3.48515 28.1617 4.24578C28.6553 5.07571 29.3973 6.32484 29.7641 6.94179C29.8351 7.06349 29.9365 7.16491 30.0582 7.2359C30.6752 7.6027 31.9243 8.34473 32.7542 8.8383C33.5149 9.28961 33.9848 10.1026 33.9949 10.9867C34.0067 11.9518 34.0253 13.4055 34.0338 14.1221C34.0355 14.2624 34.0726 14.401 34.1419 14.5244C34.4918 15.1498 35.2035 16.4176 35.6767 17.2593C36.1078 18.0301 36.1078 18.9699 35.6767 19.7407C35.2035 20.5824 34.4918 21.8502 34.1419 22.4756C34.0726 22.599 34.0355 22.7376 34.0338 22.8779C34.0253 23.5945 34.0067 25.0482 33.9949 26.0133C33.9848 26.8974 33.5149 27.7104 32.7542 28.1617C31.9243 28.6553 30.6752 29.3973 30.0582 29.7641C29.9365 29.8351 29.8351 29.9365 29.7641 30.0582C29.3973 30.6752 28.6553 31.9243 28.1617 32.7542C27.7104 33.5149 26.8974 33.9848 26.0133 33.9949C25.0482 34.0067 23.5945 34.0253 22.8779 34.0338C22.7376 34.0355 22.599 34.0726 22.4756 34.1419C21.8502 34.4918 20.5824 35.2035 19.7407 35.6767C18.9699 36.1078 18.0301 36.1078 17.2593 35.6767C16.4176 35.2035 15.1498 34.4918 14.5244 34.1419C14.401 34.0726 14.2624 34.0355 14.1221 34.0338C13.4055 34.0253 11.9518 34.0067 10.9867 33.9949C10.1026 33.9848 9.28961 33.5149 8.8383 32.7542C8.34473 31.9243 7.6027 30.6752 7.2359 30.0582C7.16491 29.9365 7.06349 29.8351 6.94179 29.7641C6.32484 29.3973 5.07571 28.6553 4.24578 28.1617C3.48515 27.7104 3.01525 26.8974 3.00511 26.0133C2.99327 25.0482 2.97468 23.5945 2.96623 22.8779C2.96454 22.7376 2.92735 22.599 2.85805 22.4756C2.50816 21.8502 1.79655 20.5824 1.32327 19.7407C0.892244 18.9699 0.892244 18.0301 1.32327 17.2593C1.79655 16.4176 2.50816 15.1498 2.85805 14.5244C2.92735 14.401 2.96454 14.2624 2.96623 14.1221C2.97468 13.4055 2.99327 11.9518 3.00511 10.9867C3.01525 10.1026 3.48515 9.28961 4.24578 8.8383C5.07571 8.34473 6.32484 7.6027 6.94179 7.2359C7.06349 7.16491 7.16491 7.06349 7.2359 6.94179C7.6027 6.32484 8.34473 5.07571 8.8383 4.24578C9.28961 3.48515 10.1026 3.01525 10.9867 3.00511C11.9518 2.99327 13.4055 2.97468 14.1221 2.96623C14.2624 2.96454 14.401 2.92735 14.5244 2.85805Z" stroke="black" stroke-width="2"/>
<rect x="21.9282" y="21.2412" width="3.32513" height="3.93201" rx="1.66256" transform="rotate(14.2477 21.9282 21.2412)" stroke="#E40000" stroke-width="2" stroke-linecap="round" stroke-linejoin="round"/>
<rect x="13.5117" y="11.8564" width="3.32513" height="3.93201" rx="1.66256" transform="rotate(14.2477 13.5117 11.8564)" stroke="#E40000" stroke-width="2" stroke-linecap="round" stroke-linejoin="round"/>
<path d="M23.7354 13.7539L14.1488 23.6421" stroke="#E40000" stroke-width="2" stroke-linecap="round" stroke-linejoin="round"/>
</svg>
