<svg width="74" height="75" viewBox="0 0 74 75" fill="none" xmlns="http://www.w3.org/2000/svg">
<circle cx="37.5" cy="37.5" r="35.5" fill="#83261A"/>
<g clip-path="url(#clip0_6_311)">
<path d="M37.0937 59.5146C36.1282 59.5146 35.2357 59.0794 34.6452 58.3196L31.0494 53.6979C30.7631 53.3296 30.2972 53.1433 29.8335 53.2102L24.3752 54.0058C23.3817 54.1509 22.4095 53.8239 21.7089 53.1087C21.0084 52.3935 20.7042 51.4194 20.8759 50.4363L21.8122 45.067C21.8964 44.5816 21.7011 44.0985 21.3025 43.8061L16.7176 40.452C15.9239 39.8718 15.4647 38.9769 15.4569 37.9983C15.449 37.0197 15.8947 36.1182 16.6795 35.5257L21.2228 32.0934C21.5989 31.8089 21.7909 31.3436 21.7224 30.8783L20.8939 25.2646C20.7535 24.3173 21.0567 23.3778 21.7235 22.6871C22.3904 21.9964 23.3233 21.6583 24.2809 21.7576L30.1378 22.3702C30.5779 22.4159 31.0067 22.2396 31.2851 21.8971L34.6845 17.7083C35.275 16.9808 36.1529 16.5635 37.0937 16.5635C38.0345 16.5635 38.9124 16.9808 39.5029 17.7083L42.9023 21.8971C43.1807 22.2396 43.6096 22.4171 44.0497 22.3702L49.9065 21.7576C50.8641 21.6572 51.7959 21.9964 52.4639 22.6871C53.1308 23.3778 53.4339 24.3173 53.2935 25.2646L52.465 30.8783C52.3965 31.3436 52.5874 31.8089 52.9646 32.0934L57.508 35.5257C58.2927 36.1182 58.7373 37.0197 58.7305 37.9983C58.7227 38.9769 58.2635 39.8718 57.4698 40.452L52.886 43.8061C52.4864 44.0985 52.291 44.5816 52.3763 45.067L53.3126 50.4363C53.4844 51.4194 53.1802 52.3935 52.4796 53.1087C51.7791 53.8239 50.8069 54.1509 49.8133 54.0058L44.355 53.2102C43.8914 53.1422 43.4255 53.3296 43.1392 53.6979L39.5433 58.3196C38.9528 59.0783 38.0603 59.5146 37.0948 59.5146H37.0937ZM30.0199 51.4115C30.9697 51.4115 31.879 51.8467 32.4695 52.6066L36.0654 57.2283C36.3135 57.5474 36.6873 57.7293 37.0926 57.7293C37.4979 57.7293 37.8728 57.5463 38.1198 57.2283L41.7157 52.6066C42.3982 51.7284 43.5097 51.2832 44.6132 51.445L50.0715 52.2406C50.488 52.302 50.8967 52.1647 51.1908 51.8646C51.485 51.5644 51.6118 51.156 51.54 50.7432L50.6037 45.3739C50.4016 44.2179 50.8675 43.0664 51.8184 42.3712L56.4022 39.0171C56.7356 38.7738 56.9276 38.3978 56.9309 37.9872C56.9343 37.5765 56.7468 37.1983 56.4179 36.9494L51.8745 33.5172C50.9775 32.8399 50.5217 31.7297 50.6845 30.6217L51.513 25.008C51.5714 24.6107 51.4445 24.2157 51.165 23.9268C50.8855 23.6366 50.4937 23.4949 50.0917 23.5373L44.2349 24.1499C43.1852 24.2593 42.1636 23.8375 41.5012 23.0218L38.1019 18.833C37.8537 18.5273 37.4855 18.3521 37.0903 18.3521C36.6952 18.3521 36.3269 18.5273 36.0788 18.833L32.6795 23.0218C32.0171 23.8375 30.9944 24.2593 29.9458 24.1499L24.0889 23.5373C23.6859 23.4949 23.2952 23.6378 23.0157 23.9268C22.7361 24.2169 22.6093 24.6107 22.6677 25.008L23.4962 30.6217C23.6601 31.7297 23.2043 32.8399 22.3062 33.5172L17.7628 36.9494C17.4339 37.1983 17.2464 37.5765 17.2498 37.9872C17.2531 38.3978 17.4462 38.7738 17.7785 39.0171L22.3634 42.3712C23.3143 43.0675 23.7802 44.2179 23.5781 45.3739L22.6418 50.7432C22.57 51.156 22.6969 51.5644 22.991 51.8646C23.2851 52.1647 23.6926 52.302 24.1103 52.2406L29.5686 51.445C29.7179 51.4238 29.8683 51.4127 30.0165 51.4127L30.0199 51.4115Z" fill="white"/>
<path d="M29.3318 20.2356C28.995 20.2356 28.6728 20.0471 28.519 19.7246L27.3515 17.2743C27.1393 16.8291 27.3301 16.2968 27.7792 16.0859C28.2271 15.875 28.7626 16.0647 28.9748 16.511L30.1424 18.9614C30.3545 19.4066 30.1637 19.9388 29.7146 20.1497C29.59 20.2077 29.4598 20.2356 29.3307 20.2356H29.3318Z" fill="white"/>
<path d="M18.3231 31.2242C18.185 31.2242 18.0447 31.1918 17.9133 31.1249L15.4884 29.8841C15.0472 29.6587 14.8743 29.1198 15.1011 28.6824C15.3279 28.2438 15.8701 28.072 16.3102 28.2974L18.7351 29.5382C19.1763 29.7636 19.3492 30.3025 19.1224 30.7399C18.963 31.0479 18.6487 31.2242 18.3231 31.2242Z" fill="white"/>
<path d="M28.162 60C28.0329 60 27.9026 59.9721 27.778 59.9141C27.3301 59.7032 27.1381 59.1709 27.3503 58.7257L28.5179 56.2754C28.73 55.8302 29.2655 55.6394 29.7135 55.8503C30.1614 56.0611 30.3534 56.5934 30.1412 57.0386L28.9736 59.4889C28.8198 59.8114 28.4976 60 28.1608 60H28.162Z" fill="white"/>
<path d="M15.8992 47.803C15.5737 47.803 15.2593 47.6267 15.0999 47.3187C14.8731 46.8802 15.046 46.3424 15.4872 46.117L17.9122 44.8762C18.3534 44.6508 18.8945 44.8226 19.1213 45.2612C19.348 45.6997 19.1751 46.2375 18.7339 46.4629L16.309 47.7037C16.1777 47.7706 16.0373 47.803 15.8992 47.803Z" fill="white"/>
<path d="M44.6694 20.2356C44.5403 20.2356 44.4101 20.2077 44.2855 20.1497C43.8375 19.9388 43.6456 19.4066 43.8577 18.9614L45.0253 16.511C45.2375 16.0658 45.773 15.875 46.2209 16.0859C46.6689 16.2968 46.8608 16.829 46.6487 17.2743L45.4811 19.7246C45.3273 20.0471 45.0051 20.2356 44.6683 20.2356H44.6694Z" fill="white"/>
<path d="M55.677 31.2242C55.3514 31.2242 55.037 31.0479 54.8776 30.7399C54.6509 30.3014 54.8237 29.7636 55.2649 29.5382L57.6899 28.2974C58.1311 28.072 58.6722 28.2438 58.899 28.6824C59.1257 29.1209 58.9528 29.6587 58.5116 29.8841L56.0867 31.1249C55.9554 31.1918 55.815 31.2242 55.6758 31.2242H55.677Z" fill="white"/>
<path d="M45.838 60C45.5012 60 45.179 59.8114 45.0252 59.489L43.8577 57.0386C43.6455 56.5934 43.8364 56.0612 44.2854 55.8503C44.7334 55.6394 45.2689 55.8291 45.481 56.2754L46.6486 58.7257C46.8608 59.171 46.6699 59.7032 46.2209 59.9141C46.0963 59.9721 45.966 60 45.8369 60H45.838Z" fill="white"/>
<path d="M58.1007 47.803C57.9626 47.803 57.8223 47.7707 57.691 47.7037L55.266 46.4629C54.8248 46.2375 54.652 45.6986 54.8787 45.2612C55.1055 44.8227 55.6477 44.6508 56.0878 44.8762L58.5127 46.117C58.9539 46.3424 59.1268 46.8814 58.9001 47.3188C58.7406 47.6267 58.4263 47.803 58.1007 47.803Z" fill="white"/>
<path d="M30.3534 46.5354C30.1547 46.5354 29.9548 46.4707 29.7887 46.3368C29.4036 46.0266 29.343 45.4642 29.6551 45.0815L43.6736 27.8578C43.9857 27.4739 44.5515 27.4148 44.9366 27.725C45.3228 28.0352 45.3823 28.5976 45.0702 28.9803L31.0517 46.204C30.8743 46.4216 30.6149 46.5354 30.3522 46.5354H30.3534Z" fill="white"/>
<path d="M30.2871 36.0512C28.1036 36.0512 26.2209 34.4076 25.9863 32.2017C25.865 31.0591 26.1984 29.9377 26.9248 29.045C27.6523 28.1512 28.6851 27.5933 29.8347 27.4728C30.9843 27.3523 32.1125 27.6837 33.0107 28.4056C33.9099 29.1287 34.4712 30.1553 34.5925 31.2978C34.7137 32.4404 34.3803 33.5618 33.6539 34.4545C32.9265 35.3483 31.8936 35.9062 30.744 36.0267C30.5902 36.0423 30.4376 36.0512 30.286 36.0512H30.2871ZM30.295 29.2336C30.2052 29.2336 30.1154 29.238 30.0244 29.2481C29.352 29.3184 28.7468 29.6453 28.3225 30.1675C27.897 30.6897 27.7017 31.3458 27.7735 32.0142C27.9206 33.3934 29.1678 34.3976 30.5566 34.2525C31.229 34.1822 31.833 33.8553 32.2585 33.3331C32.684 32.8109 32.8793 32.1548 32.8075 31.4864C32.7367 30.818 32.4078 30.2166 31.8824 29.7948C31.4277 29.4289 30.872 29.2347 30.295 29.2347V29.2336Z" fill="white"/>
<path d="M43.8903 47.9336C42.9035 47.9336 41.9548 47.601 41.1768 46.9762C40.2776 46.2531 39.7163 45.2266 39.595 44.084C39.4738 42.9414 39.8072 41.82 40.5336 40.9273C41.261 40.0336 42.2939 39.4757 43.4435 39.3552C44.5931 39.2346 45.7213 39.566 46.6194 40.288C47.5187 41.011 48.08 42.0376 48.2012 43.1802C48.3225 44.3228 47.9891 45.4442 47.2627 46.3368C46.5352 47.2295 45.5024 47.7885 44.3528 47.909C44.1979 47.9257 44.0441 47.9336 43.8903 47.9336ZM43.9037 41.1159C43.8139 41.1159 43.7241 41.1204 43.6332 41.1304C42.9607 41.2007 42.3556 41.5276 41.9312 42.0498C41.5058 42.5721 41.3104 43.2282 41.3823 43.8965C41.453 44.5649 41.7819 45.1663 42.3073 45.5881C42.8327 46.011 43.4929 46.204 44.1653 46.1337C44.8378 46.0634 45.4418 45.7365 45.8673 45.2143C46.2927 44.6921 46.4881 44.036 46.4162 43.3676C46.3455 42.6993 46.0166 42.0978 45.4912 41.6761C45.0365 41.3101 44.4808 41.1159 43.9037 41.1159Z" fill="white"/>
</g>
<defs>
<clipPath id="clip0_6_311">
<rect width="44" height="44" fill="white" transform="translate(15 16)"/>
</clipPath>
</defs>
</svg>
