<svg width="60" height="60" viewBox="0 0 60 60" fill="none" xmlns="http://www.w3.org/2000/svg">
<path d="M28.0094 27.241C28.7632 26.9749 29.4398 26.5571 30.1171 26.1398C30.7653 25.7364 31.3799 25.2836 31.9554 24.7858C33.6752 23.3138 35.5226 20.7518 34.7519 18.3278C34.2095 16.6164 32.523 15.7367 30.813 15.7367C28.5861 15.7367 26.3436 16.9281 24.6742 18.3626C23.8321 19.1595 22.3554 21.1533 23.7001 22.1607C24.773 22.9545 26.2949 22.2298 27.281 21.6364C28.4008 20.8718 29.5604 20.0782 30.8501 19.6405C31.4622 19.4171 32.3219 19.403 32.6506 20.0833C32.9029 20.5861 32.8429 21.3807 32.4993 22.1074C32.0305 23.0976 31.2254 24.0734 30.1074 25.0085C29.3554 25.6561 28.4857 26.2381 27.5388 26.5553C26.4457 26.8419 27.1108 25.8998 27.1108 25.8998C27.4921 25.4697 27.9367 25.1016 28.3459 24.6994C28.5362 24.5127 28.7978 24.2569 28.7821 23.889C28.7597 23.39 28.2261 23.0853 27.7455 23.0853C26.9324 23.0853 26.2061 23.7969 25.7892 24.4349C25.4985 24.8866 24.8863 26.0376 25.4825 26.9579C25.8869 27.5838 26.7694 27.6788 28.0094 27.241Z" fill="#292C31"/>
<path d="M14.8669 10.8734H44.3398C44.9289 10.8734 45.4067 10.3952 45.4067 9.80605V6.33669C45.4067 3.83509 43.3729 1.8 40.8724 1.8H18.3343C15.8338 1.8 13.8 3.83509 13.8 6.33669V9.80605C13.8 10.3952 14.2778 10.8734 14.8669 10.8734ZM43.273 6.33669V8.73871H15.9337V6.33669C15.9337 5.01247 17.011 3.93468 18.3343 3.93468H40.8724C42.1956 3.93468 43.273 5.01247 43.273 6.33669Z" fill="#20201D" stroke="black" stroke-width="0.4"/>
<path d="M14.8669 47.3016H19.2011C19.7902 47.3016 20.268 46.8234 20.268 46.2343C20.268 45.6452 19.7902 45.1669 19.2011 45.1669H14.8669C14.2778 45.1669 13.8 45.6452 13.8 46.2343C13.8 46.8234 14.2778 47.3016 14.8669 47.3016Z" fill="#20201D" stroke="black" stroke-width="0.4"/>
<path d="M43.273 36.6935C43.273 37.2827 43.7507 37.7609 44.3398 37.7609C44.9289 37.7609 45.4067 37.2827 45.4067 36.6935V9.80604C45.4067 9.21692 44.9289 8.73871 44.3398 8.73871C43.7507 8.73871 43.273 9.21692 43.273 9.80604V36.6935Z" fill="#20201D" stroke="black" stroke-width="0.4"/>
<path d="M18.3343 54.2403H22.9901C23.5792 54.2403 24.057 53.7621 24.057 53.173C24.057 52.5839 23.5792 52.1056 22.9901 52.1056H18.3343C17.011 52.1056 15.9337 51.0279 15.9337 49.7036V9.80604C15.9337 9.21692 15.4559 8.73871 14.8669 8.73871C14.2778 8.73871 13.8 9.21692 13.8 9.80604V49.7036C13.8 52.2052 15.8338 54.2403 18.3343 54.2403Z" fill="#20201D" stroke="black" stroke-width="0.4"/>
<path d="M38.7406 40.3125C38.607 40.2021 38.4397 40.1484 38.2645 40.1668L37.6868 40.2221C37.3299 40.2557 37.0675 40.5759 37.1019 40.9346L37.1883 42.3413M38.7406 40.3125L38.6768 40.3896C38.6768 40.3896 38.6769 40.3896 38.6769 40.3896M38.7406 40.3125L38.6769 40.3896M38.7406 40.3125C38.875 40.4238 38.9582 40.5799 38.9718 40.7096L36.4386 43.1899C36.8803 43.1627 37.2155 42.7824 37.1883 42.3413M38.6769 40.3896C38.5631 40.2956 38.4224 40.2508 38.275 40.2663L38.274 40.2664L38.274 40.2664L37.6963 40.3216L37.6962 40.3216C37.395 40.35 37.1722 40.6208 37.2014 40.9251L37.2018 40.9285L37.2017 40.9285L37.2881 42.3351M38.6769 40.3896C38.7928 40.4856 38.8605 40.6172 38.8721 40.7171L38.9239 42.0266L38.9239 42.0266C38.9437 42.523 39.3525 42.9056 39.8582 42.8903L39.8592 42.8903C40.3562 42.8705 40.7423 42.4516 40.7225 41.9546L40.7225 41.9545L40.6673 40.5975L40.6674 40.5975L40.6669 40.592C40.6067 39.966 40.3074 39.4013 39.8229 39.0009C39.3386 38.6008 38.7274 38.4106 38.1011 38.4733C38.1011 38.4733 38.101 38.4733 38.1009 38.4733L37.5237 38.5285L37.5236 38.5285C36.2345 38.6522 35.2847 39.8027 35.4059 41.0681L35.4906 42.4459L35.4906 42.4459C35.5194 42.9088 35.8927 43.2684 36.3457 43.2897L36.3474 43.2915H36.389C36.4074 43.2915 36.4262 43.2906 36.4423 43.2898L36.4433 43.2898L36.4433 43.2898L36.4447 43.2897C36.9416 43.2591 37.3187 42.8313 37.2881 42.3351M37.2881 42.3351L37.1883 42.3413M37.2881 42.3351L37.2881 42.3351L37.1883 42.3413" fill="#20201D" stroke="black" stroke-width="0.2"/>
<path d="M32.0759 42.8776L32.0759 42.8777C32.1209 43.3434 32.5133 43.6918 32.9716 43.6918C32.9993 43.6918 33.028 43.6909 33.0583 43.6882L33.0588 43.6881C33.5538 43.6404 33.9166 43.2009 33.8689 42.7056C33.8689 42.7056 33.8689 42.7056 33.8689 42.7056L33.7296 41.2589C33.7005 40.9546 33.9232 40.6839 34.2244 40.6555L34.2245 40.6555L34.8022 40.6002L34.8022 40.6002L34.8041 40.6C34.9495 40.5833 35.0908 40.629 35.2051 40.7235C35.321 40.8195 35.3887 40.9511 35.4003 41.0509L35.4521 42.3604L35.4521 42.3604C35.4719 42.856 35.8787 43.2474 36.3877 43.2242C36.8845 43.2042 37.2705 42.7853 37.2507 42.2884L37.2507 42.2884L37.1955 40.9313L37.1956 40.9313L37.1951 40.9258C37.135 40.2999 36.8356 39.7352 36.3511 39.3348C35.8666 38.9344 35.2553 38.7461 34.6294 38.8072L34.0519 38.8624L34.0518 38.8624C32.7612 38.9862 31.813 40.1384 31.9367 41.4309L31.9367 41.4309L32.0759 42.8776ZM34.7927 40.5007L34.215 40.5559L35.2688 40.6464C35.1352 40.5359 34.9672 40.4807 34.7927 40.5007Z" fill="#20201D" stroke="black" stroke-width="0.2"/>
<path d="M31.5662 56.1531L31.5662 56.1531L23.2143 48.9941L23.2118 48.992L23.2119 48.992C22.7377 48.5587 22.4259 47.8763 22.3478 47.1516L22.3478 47.1515C22.2613 46.3475 22.4744 45.5902 22.9431 45.0783C22.9431 45.0782 22.9431 45.0782 22.9431 45.0782L23.4024 44.5763L23.4024 44.5763C23.8904 44.0434 24.609 43.8003 25.4193 43.8814C26.0715 43.9466 26.7245 44.2258 27.1692 44.6333L27.1692 44.6333L28.8286 46.155L27.7719 34.5298C27.7719 34.5297 27.7718 34.5296 27.7718 34.5295C27.6483 33.2417 28.5967 32.0906 29.8869 31.9652L29.8871 31.9652L30.4648 31.91L30.4651 31.9099C31.7492 31.7921 32.9066 32.7355 33.0303 34.0287L33.0303 34.0288L33.8505 42.7065L33.7509 42.7159L33.8505 42.7065C33.8973 43.2018 33.5337 43.6413 33.0394 43.6881L33.0389 43.6882C32.5385 43.7331 32.1051 43.3703 32.0583 42.8767L32.0582 42.8767L31.2381 34.1999C31.209 33.8974 30.9344 33.6728 30.6375 33.7038L30.6366 33.7039L30.059 33.7591C29.7573 33.7882 29.5342 34.0586 29.564 34.3623L29.5641 34.363L30.8315 48.3119L30.8315 48.312C30.8648 48.682 30.6678 49.0351 30.3346 49.2L30.3344 49.2001C30.0001 49.3646 29.6003 49.3091 29.3263 49.0566L25.9523 45.9616C25.8253 45.8452 25.5524 45.7053 25.2412 45.6744C25.1828 45.6688 25.0836 45.6639 24.9823 45.6797C24.8792 45.6958 24.788 45.731 24.7301 45.7938C24.73 45.7939 24.73 45.7939 24.73 45.7939L24.2701 46.2957C24.2205 46.3498 24.1783 46.4381 24.1531 46.5559C24.1282 46.6725 24.1215 46.8114 24.1373 46.9597L24.1373 46.9597C24.1554 47.13 24.1988 47.2807 24.2507 47.4005C24.303 47.521 24.3613 47.6042 24.406 47.6458L32.7102 54.7646C33.5592 55.4334 34.725 55.7994 35.9251 55.9219C37.1251 56.0445 38.3489 55.9225 39.3046 55.6254C40.564 55.2333 41.648 54.8353 42.3857 54.1833C43.1143 53.5395 43.5134 52.6398 43.3804 51.2159L31.5662 56.1531ZM31.5662 56.1531L31.5693 56.1556M31.5662 56.1531L31.5693 56.1556M31.5693 56.1556C33.0088 57.2932 35.0055 57.767 36.8811 57.7671L31.5693 56.1556ZM41.8152 40.6561L41.8139 40.6563L41.2374 40.7113C41.2371 40.7113 41.2368 40.7114 41.2364 40.7114C40.9816 40.7413 40.8526 40.8709 40.7844 41.0264C40.7126 41.1898 40.7064 41.3875 40.7191 41.5413C40.7595 42.033 40.3975 42.471 39.9052 42.5161L39.9041 42.5162C39.403 42.5565 38.9781 42.2066 38.9276 41.715L38.9276 41.7149C38.8762 41.2107 38.9687 40.5661 39.2923 40.0197C39.6182 39.4693 40.1772 39.0218 41.0455 38.9202L41.0474 38.92L41.6411 38.8624C41.6411 38.8624 41.6411 38.8624 41.6411 38.8624C42.2662 38.8014 42.8783 38.9897 43.3621 39.3901C43.8466 39.7897 44.1458 40.3552 44.2068 40.9801L44.2068 40.9803L45.1734 51.0446L45.1734 51.0449C45.3834 53.2919 44.5844 54.7075 43.457 55.641C42.3397 56.5661 40.9049 57.0129 39.8466 57.3425L39.8394 57.3447L39.8393 57.3447C38.968 57.6153 37.942 57.7671 36.8819 57.7671L41.8152 40.6561ZM41.8152 40.6561C41.9576 40.6407 42.1022 40.6855 42.2158 40.7794L41.8152 40.6561ZM42.4138 41.1539L42.4138 41.154L43.3804 51.2156L42.4138 41.1539Z" fill="#20201D" stroke="black" stroke-width="0.2"/>
</svg>
