<svg width="100" height="100" viewBox="0 0 100 100" fill="none" xmlns="http://www.w3.org/2000/svg">
<path d="M43.9202 6.33284C41.6348 5.94491 39.0054 7.06364 35.9037 9.73684C34.625 10.999 33.4978 12.4485 32.567 14.0739L24.2599 28.5723L21.0977 26.7321L22.4833 41.7691L36.0989 35.4606L33.0005 33.6577L41.3087 19.1593C43.8237 14.77 47.9936 14.2958 49.6693 14.2958C50.3046 14.2958 51.2986 14.3651 52.4247 14.6887C49.7129 10.2682 47.1102 6.86748 43.9202 6.33284Z" fill="white"/>
<path d="M74.8916 28.2454L66.7726 14.0744C63.2025 7.84334 56.8088 4.12393 49.6692 4.12393C48.5377 4.12393 47.428 4.22778 46.3423 4.40966C50.497 6.2526 53.5016 11.3974 56.907 17.2377L58.0221 19.1455C58.0249 19.1505 58.0281 19.1549 58.0309 19.1598L66.1515 33.3308L74.8916 28.2454Z" fill="white"/>
<path d="M39.495 82.026H22.8808C17.8488 82.0249 15.3579 78.6225 14.5203 77.1615C14.2029 76.6076 13.765 75.7059 13.4798 74.5613C11.0369 79.1374 9.41572 83.1079 10.5505 86.1591C11.3652 88.3504 13.6347 90.0808 17.4823 91.4522C19.2071 91.9374 21.0175 92.1968 22.8808 92.1968H39.495V95.8761L51.7234 87.1493L39.495 78.4225V82.0265V82.026Z" fill="white"/>
<path d="M13.4297 69.3737L14.5116 67.4456C14.5143 67.4412 14.5159 67.4362 14.5186 67.4318L22.6387 53.2608L13.897 48.1754L5.77803 62.3464C2.20794 68.5769 2.20794 76.0168 5.77803 82.2479C6.34405 83.2353 6.98805 84.1524 7.68767 85.0085C7.19308 80.4605 10.1121 75.2657 13.4291 69.3737H13.4297Z" fill="white"/>
<path d="M74.8011 39.919L73.4155 54.956L76.5139 53.1531L84.8199 67.6516C87.3348 72.0397 85.6575 75.9169 84.8199 77.3796C84.5025 77.934 83.9458 78.767 83.1049 79.5874C88.2591 79.4308 92.483 78.8604 94.5377 76.3443C96.0138 74.5377 96.3666 71.6925 95.6223 67.6505C95.1768 65.9021 94.4941 64.1921 93.5621 62.5657L85.255 48.0672L88.4172 46.227L74.8022 39.9185L74.8011 39.919Z" fill="white"/>
<path d="M76.474 82.2452C76.4686 82.2447 76.4637 82.2452 76.4577 82.2452L60.2192 82.2441V92.4149L76.4577 92.416C83.5973 92.416 89.9909 88.6955 93.561 82.465C94.1271 81.4776 94.5927 80.4572 94.9794 79.4187C91.3182 82.1238 85.3952 82.1727 78.6738 82.2249L76.474 82.2447V82.2452Z" fill="white"/>
<path d="M58.2711 44L41.7307 44L46.8196 44C55.4348 44 55.8734 58.5945 44.486 58.5945L41.7307 58.5945L53.603 70.4669" stroke="white" stroke-width="3" stroke-linecap="round" stroke-linejoin="round"/>
<path d="M41.7285 50.3614L58.2691 50.3614" stroke="white" stroke-width="3" stroke-linecap="round" stroke-linejoin="round"/>
</svg>
