<svg width="56" height="56" viewBox="0 0 56 56" fill="none" xmlns="http://www.w3.org/2000/svg">
<g clip-path="url(#clip0_470_81545)">
<g clip-path="url(#clip1_470_81545)">
<path fill-rule="evenodd" clip-rule="evenodd" d="M28 0C43.464 0 56 12.536 56 28C56 43.464 43.464 56 28 56C12.536 56 0 43.464 0 28C0 12.536 12.536 0 28 0Z" fill="#E3E5FF"/>
<path d="M22.6177 19.9215L20.7076 17.4449C20.6106 17.2835 20.558 17.0992 20.5551 16.9109C20.5522 16.7226 20.5991 16.5368 20.6912 16.3725C20.7832 16.2081 20.917 16.0711 21.0791 15.9751C21.2412 15.8792 21.4258 15.8278 21.6141 15.8262H28.4775C28.6658 15.8278 28.8504 15.8792 29.0125 15.9751C29.1746 16.0711 29.3084 16.2081 29.4004 16.3725C29.4925 16.5368 29.5394 16.7226 29.5365 16.9109C29.5336 17.0992 29.481 17.2835 29.384 17.4449L27.4739 19.9053C29.2945 20.8156 30.8209 21.9601 32.0002 23.246M22.6177 19.9215C17.7616 22.3658 15.3335 25.6032 15.3335 30.4594C15.4638 33.576 17.0249 35.5274 17.0249 35.5274C19.66 38.7903 22.6661 39.8652 25.3335 39.8251M22.6177 19.9215H27.479" stroke="black" stroke-width="1.2" stroke-linecap="round" stroke-linejoin="round"/>
<path d="M22.5859 25.6843H23.7845C24.937 25.6843 26.2393 26.0704 26.2393 27.851C26.2393 29.7814 24.6028 30.519 22.8683 30.323C22.848 30.3205 22.8274 30.3244 22.8094 30.3342C22.7914 30.344 22.7769 30.3592 22.768 30.3777C22.7591 30.3961 22.7562 30.4169 22.7598 30.4371C22.7633 30.4572 22.773 30.4758 22.7876 30.4901L26.4755 34.4604M27.6511 25.6843H23.5194M22.6493 27.9144H27.6799" stroke="black" stroke-width="1.1" stroke-linecap="round" stroke-linejoin="round"/>
<path d="M39.5694 28.3752H30.955C30.2753 28.3752 29.7244 28.9262 29.7244 29.6059V38.2203C29.7244 38.8999 30.2753 39.4509 30.955 39.4509H39.5694C40.249 39.4509 40.8 38.8999 40.8 38.2203V29.6059C40.8 28.9262 40.249 28.3752 39.5694 28.3752Z" stroke="black" stroke-width="1.2" stroke-linecap="round" stroke-linejoin="round"/>
<path d="M32.8003 27.144V29.6053" stroke="black" stroke-width="1.2" stroke-linecap="round" stroke-linejoin="round"/>
<path d="M37.3335 27.144V29.6053" stroke="black" stroke-width="1.2" stroke-linecap="round" stroke-linejoin="round"/>
<path d="M29.7244 32.0664H40.8" stroke="black" stroke-width="1.2" stroke-linecap="round" stroke-linejoin="round"/>
</g>
</g>
<defs>
<clipPath id="clip0_470_81545">
<rect width="56" height="56" fill="white"/>
</clipPath>
<clipPath id="clip1_470_81545">
<rect width="56" height="56" fill="white"/>
</clipPath>
</defs>
</svg>
