<svg width="100" height="100" viewBox="0 0 100 100" fill="none" xmlns="http://www.w3.org/2000/svg">
<path d="M12.201 73.0776H39.7358C40.3821 73.0776 40.9773 72.9246 41.4195 72.6525C41.8617 72.3803 42.2189 71.9722 42.2189 71.4619C42.2189 70.9517 41.8617 70.5265 41.4195 70.2714C40.9773 69.9993 40.3651 69.8463 39.7358 69.8463H12.201C11.5547 69.8463 10.9594 69.9993 10.5172 70.2714C10.075 70.5436 9.7179 70.9517 9.7179 71.4619C9.7179 71.9722 10.075 72.3973 10.5172 72.6525C10.9594 72.9246 11.5717 73.0776 12.201 73.0776Z" fill="white" stroke="white" stroke-width="0.4"/>
<path d="M11.6397 80.8841H29.9226C30.892 80.8841 31.6913 80.1017 31.6913 79.1153C31.6913 78.1289 30.909 77.3466 29.9226 77.3466H11.6397C10.6703 77.3466 9.87097 78.1289 9.87097 79.1153C9.87097 80.1017 10.6533 80.8841 11.6397 80.8841Z" fill="white" stroke="white" stroke-width="0.4"/>
<path d="M4.76876 60.4583H6.53752V48.6893C6.53752 47.7028 7.35387 46.9035 8.34029 46.9035H57.6785C58.2397 45.764 58.886 44.5905 59.5833 43.366H8.34029C5.39803 43.366 3 45.764 3 48.6893V62.3461C3 61.3257 3.76533 60.4583 4.76876 60.4583Z" fill="white" stroke="white" stroke-width="0.4"/>
<path d="M72.4068 87.6699C72.4068 88.6563 71.6075 89.4557 70.604 89.4557H8.34029C7.35387 89.4557 6.53752 88.6563 6.53752 87.6699V64.2508H4.76876C3.76533 64.2508 3 63.3835 3 62.363V87.6869C3 90.6292 5.39803 93.0102 8.34029 93.0102H70.604C73.5463 93.0102 75.9443 90.6122 75.9443 87.6869V70.2374C74.8048 70.4755 73.6143 70.5946 72.4068 70.5946V87.6869V87.6699Z" fill="white" stroke="white" stroke-width="0.4"/>
<path d="M56.6411 60.4582H6.5376V64.2508H58.9371C58.0017 63.0943 57.2364 61.8358 56.6411 60.4582Z" fill="white" stroke="white" stroke-width="0.4"/>
<path d="M4.76876 64.2508H6.53752V60.4582H4.76876C3.76533 60.4582 3 61.3256 3 62.346C3 63.3664 3.76533 64.2338 4.76876 64.2338V64.2508Z" fill="white" stroke="white" stroke-width="0.4"/>
<path d="M79.788 13.2459C79.6519 12.5826 78.7846 12.5826 78.6485 13.2289C76.3865 23.9775 70.468 32.8043 66.3862 39.9644C65.6889 41.1889 65.0426 42.3624 64.4814 43.5019C63.1038 46.2741 62.1854 48.7742 62.1854 50.9851C62.1854 53.196 62.6276 55.1859 63.427 57.0567C64.0052 58.4173 64.7875 59.6928 65.7229 60.8493C68.8353 64.693 73.6994 67.1761 79.1927 67.1761C80.4173 67.1761 81.5908 67.057 82.7303 66.8189C90.4176 65.2712 96.2 58.7744 96.2 50.9851C96.2 42.5835 83.3595 30.3552 79.771 13.2459H79.788Z" fill="white"/>
<path d="M57.5763 7.29338C57.4913 6.90221 56.9981 6.90221 56.913 7.29338C55.6035 13.5351 52.168 18.6543 49.804 22.821C49.3958 23.5354 49.0217 24.2156 48.6985 24.8789C47.8992 26.4946 47.3719 27.9402 47.3719 29.2328C47.3719 30.5254 47.6271 31.6648 48.1033 32.7533C48.4434 33.5527 48.8856 34.284 49.4298 34.9473C51.2326 37.1752 54.0728 38.6208 57.2532 38.6208C57.9675 38.6208 58.6478 38.5528 59.3111 38.4167C63.784 37.5154 67.1344 33.7397 67.1344 29.2158C67.1344 24.3347 59.6852 17.2427 57.5933 7.29338H57.5763Z" fill="white"/>
</svg>
